<svg xmlns="http://www.w3.org/2000/svg" width="873" height="605" fill="none" viewBox="0 0 873 605">
  <g clip-path="url(#a)">
    <path fill="#CCC" d="M872.443 518.662a.982.982 0 0 1-.285.69.96.96 0 0 1-.69.285H319.675a.978.978 0 0 1-.975-.975.976.976 0 0 1 .975-.975h551.793a.972.972 0 0 1 .975.975Z"/>
    <path fill="#E6E6E6" d="M547.352 477.084c97.314 0 176.202-78.888 176.202-176.202S644.666 124.68 547.352 124.68s-176.203 78.888-176.203 176.202 78.889 176.202 176.203 176.202Z"/>
    <path fill="#fff" d="M698.968 300.882a151.408 151.408 0 0 1-61.196 121.711c-1.27.951-2.565 1.877-3.868 2.778a151.64 151.64 0 0 1-173.104 0 126.338 126.338 0 0 1-3.869-2.778 151.634 151.634 0 0 1 0-243.422c1.271-.95 2.565-1.877 3.869-2.778a151.64 151.64 0 0 1 173.104 0c1.303.901 2.598 1.828 3.868 2.778a151.41 151.41 0 0 1 61.196 121.711Z"/>
    <path fill="#44B1D8" d="M547.352 439.385c76.493 0 138.503-62.01 138.503-138.503s-62.01-138.503-138.503-138.503-138.503 62.01-138.503 138.503 62.01 138.503 138.503 138.503Z"/>
    <path fill="#101010" d="M547.713 162.766c-2.099 0-4.186.055-6.263.147a138.498 138.498 0 0 1-5.865 276.325c3.998.347 8.041.534 12.128.534a138.505 138.505 0 0 0 138.503-138.503 138.503 138.503 0 0 0-138.503-138.503Z" opacity=".2"/>
    <path fill="#fff" d="M547.762 152.544a4.515 4.515 0 0 0-4.508 4.508v19.669a4.505 4.505 0 0 0 4.508 4.507 4.508 4.508 0 0 0 4.507-4.507v-19.669a4.514 4.514 0 0 0-4.507-4.508Zm90.01 26.627a126.295 126.295 0 0 0-3.868-2.778 4.511 4.511 0 0 0-4.016 1.959l-11.072 16.251a4.51 4.51 0 0 0 1.189 6.262 4.507 4.507 0 0 0 6.261-1.189l11.072-16.251a4.487 4.487 0 0 0 .758-2.072 4.489 4.489 0 0 0-.324-2.182Zm50.304 74.104a4.502 4.502 0 0 0-5.868-2.475l-18.227 7.4a4.507 4.507 0 0 0 3.393 8.351l18.227-7.4a4.519 4.519 0 0 0 2.475-5.876Zm-212.189-58.672-11.072-16.251a4.5 4.5 0 0 0-4.015-1.959 129.353 129.353 0 0 0-3.869 2.778 4.476 4.476 0 0 0 .435 4.254l11.072 16.251a4.504 4.504 0 0 0 6.261 1.189 4.509 4.509 0 0 0 1.188-6.262ZM430.722 258.2l-18.227-7.401a4.51 4.51 0 0 0-5.871 2.48 4.51 4.51 0 0 0 2.479 5.872l18.226 7.4a4.507 4.507 0 0 0 3.393-8.351Zm117.04 162.336a4.514 4.514 0 0 0-4.508 4.507v19.669a4.507 4.507 0 1 0 9.015 0v-19.669a4.514 4.514 0 0 0-4.507-4.507Zm89.576-2.197-11.072-16.251a4.507 4.507 0 0 0-7.45 5.073l11.072 16.251a4.511 4.511 0 0 0 4.016 1.959 126.295 126.295 0 0 0 3.868-2.778 4.477 4.477 0 0 0-.434-4.254Zm48.263-75.726-18.226-7.4a4.505 4.505 0 0 0-5.872 2.479 4.505 4.505 0 0 0 2.479 5.872l18.226 7.4a4.507 4.507 0 0 0 3.393-8.351Zm-210.902 58.286a4.509 4.509 0 0 0-6.261 1.189l-11.072 16.251a4.476 4.476 0 0 0-.435 4.254c1.271.95 2.566 1.877 3.869 2.778a4.506 4.506 0 0 0 4.015-1.959l11.072-16.251a4.497 4.497 0 0 0 .703-3.377 4.495 4.495 0 0 0-1.891-2.885Zm-41.502-63.211a4.499 4.499 0 0 0-5.868-2.475l-18.226 7.4a4.506 4.506 0 0 0-2.476 5.871 4.507 4.507 0 0 0 5.869 2.48l18.226-7.4a4.519 4.519 0 0 0 2.475-5.876Z"/>
    <path fill="#3F3D56" d="M553.61 298.645a9.438 9.438 0 0 1-7.711 10.872l-79.986 13.606a9.44 9.44 0 0 1-7.033-1.604 9.436 9.436 0 0 1-3.839-6.107 9.44 9.44 0 0 1 1.604-7.033 9.422 9.422 0 0 1 6.107-3.839l79.986-13.605a9.431 9.431 0 0 1 10.872 7.71Z"/>
    <path fill="#3F3D56" d="M637.794 387.264a6.155 6.155 0 0 1-8.693.034l-86.104-85.429a6.145 6.145 0 0 1-.03-8.688 6.147 6.147 0 0 1 8.688-.038l86.104 85.428a6.15 6.15 0 0 1 .035 8.693Z"/>
    <path fill="#CCC" d="M547.352 311.536c5.884 0 10.654-4.77 10.654-10.654s-4.77-10.654-10.654-10.654-10.654 4.77-10.654 10.654 4.77 10.654 10.654 10.654Z"/>
    <path fill="#E6E6E6" d="M473.966 116.139c-16.353 25.711-41.306 42.774-72.078 53.984a5.798 5.798 0 0 1-4.29 1.096 5.776 5.776 0 0 1-3.809-2.259c-16.715-22.318-12.941-54.215 9.12-71.269a50.857 50.857 0 0 1 37.913-10.135 50.87 50.87 0 0 1 33.845 19.867l.462.618a5.784 5.784 0 0 1-1.163 8.098Zm146.071-8.716a50.868 50.868 0 0 1 71.758-9.732c22.06 17.054 25.835 48.951 9.119 71.269a5.777 5.777 0 0 1-3.808 2.259 5.79 5.79 0 0 1-4.29-1.096c-28.567-10.937-51.994-29.864-72.079-53.984a5.786 5.786 0 0 1-1.162-8.098l.462-.618Zm-7.168 346.114a4.52 4.52 0 0 0-1.732 6.135l26.014 46.487a4.508 4.508 0 0 0 7.867-4.402l-26.014-46.487a4.517 4.517 0 0 0-6.135-1.733ZM475.7 455.27l-26.014 46.486a4.506 4.506 0 0 0 5.158 6.539 4.508 4.508 0 0 0 2.709-2.136l26.014-46.487a4.504 4.504 0 0 0-.394-4.994 4.523 4.523 0 0 0-4.765-1.546 4.53 4.53 0 0 0-1.567.799 4.519 4.519 0 0 0-1.141 1.339Z"/>
  </g>
  <g clip-path="url(#b)">
    <path fill="#2F2E41" d="M386.363 198.789h-47.452v-15.625c0-26.189 21.263-47.452 47.452-47.452v63.077Z"/>
    <path fill="#A0616A" d="m375.845 169.621 8.159 36.697-47.81-7.938 19.483-34.707 20.168 5.948Z"/>
    <path fill="#101010" d="m375.845 169.621 8.159 36.697-47.81-7.938 19.483-34.707 20.168 5.948Z" opacity=".1"/>
    <path fill="#A0616A" d="M330.008 315.852h45.837v-67.838h-45.837v67.838Z"/>
    <path fill="#2F2E41" d="m405.639 371.315-10.084 54.088s6.417 37.586-12.834 76.089l-12.834 39.42-19.252-2.75s11.918-29.336 11.918-42.17c0-12.835 2.75-62.339 2.75-62.339l-1.375-56.487 41.711-5.851Z"/>
    <path fill="#2F2E41" d="M347.885 537.245s22.001-8.25 23.835 3.667l-.917 5.501s8.251 24.752-3.667 26.585c-11.917 1.834-22.918 4.584-23.835-.917-.917-5.5-.902-12.366 1.382-17.184 2.285-4.817 3.202-17.652 3.202-17.652Zm-11.643-174.32-5.356 54.758s-16.618 34.319-8.834 76.657l1.365 41.434 19.257 2.713s-3.289-31.493.281-43.821c3.569-12.328 14.695-60.644 14.695-60.644l17.031-53.877-38.439-17.22Z"/>
    <path fill="#2F2E41" d="M345.571 538.371s-18.839-14.044-23.915-3.106l-.649 5.538s-14.809 21.481-3.871 26.556c10.937 5.076 20.739 10.777 23.15 5.749 2.41-5.029 4.306-11.628 3.451-16.891-.855-5.263 1.834-17.846 1.834-17.846Zm49.067-253.688c21.561 20.12 23.161 51.955 10.543 89.841 0 0-40.337 27.502-69.672-7.334l-14.668-70.589 73.797-11.918Z"/>
    <path fill="#44B1D8" d="m358.427 186.592 22.919 3.667-1.834 57.755 25.669 51.337-33.003 16.501s-25.668-48.587-30.252-78.839c-4.584-30.253-1.834-52.255-1.834-52.255l18.335 1.834Z"/>
    <path fill="#44B1D8" d="m341.009 188.425-22.918 3.667 1.833 57.755-5.5 53.171 12.834 14.668s25.669-48.587 30.252-78.84c4.584-30.252 1.834-52.254 1.834-52.254l-18.335 1.833Zm27.502 1.376 5.042-1.376s17.877-2.291 20.627 5.042c2.75 7.334 1.833 50.421 1.833 50.421s4.731 52.882-13.677 53.485c-18.408.603-14.741-43.401-14.741-43.401l.916-64.171Z"/>
    <path fill="#A0616A" d="M367.845 179.692c13.104 0 23.726-10.622 23.726-23.726 0-13.103-10.622-23.726-23.726-23.726-13.103 0-23.726 10.623-23.726 23.726 0 13.104 10.623 23.726 23.726 23.726Z"/>
    <path fill="#44B1D8" d="m338.259 191.634-5.042-1.375s-17.877-2.292-20.627 5.042-1.833 50.421-1.833 50.421-4.731 52.882 13.677 53.485c18.408.602 14.742-43.401 14.742-43.401l-.917-64.172Z"/>
    <path fill="#A0616A" d="M354.14 188.62c-5.09-1.292-10.861 4.145-12.891 12.145a20.65 20.65 0 0 0-.232 9.75l-2.187 9.095-.161-.009-17.252 40.656c-4.011 9.454-3.587 20.306 1.529 29.21 3.044 5.296 7.039 8.857 11.73 5.222 7.784-6.031 12.868-40.565 15.189-60.402l5.368-20.165a20.663 20.663 0 0 0 4.447-8.683c2.03-7.998-.451-15.528-5.54-16.819Z"/>
    <path fill="#2F2E41" d="M322.422 175.161c1.207-3.67 3.589-6.882 4.655-10.595 1.416-4.93 4.429 6.007 4.723.886.558-9.733 15.413-34.768 23.893-39.577 8.48-4.81 13.35-3.36 21.99 1.157 0 0 4.194.267 9.415 2.844 5.221 2.578 9.92 6.706 11.951 12.163 1.61 4.326 1.431 9.076 1.969 13.659 1.499 12.771 8.657 24.916 7.121 37.681-.48 3.983-1.994 8.102-5.25 10.444-3.257 2.343-8.518 2.088-10.661-1.303-.732-1.157-1.041-2.53-1.668-3.747s-1.759-2.351-3.128-2.313c-2.056.057-3.103 2.816-2.292 4.707.811 1.891 2.717 3.033 4.506 4.049-4.262 1.917-9.549 1.32-13.276-1.5-3.727-2.819-5.74-7.744-5.054-12.367.967-6.515 10.457-5.166 11.575-11.657.814-4.724 3.672-12.63 2.894-17.36-.779-4.731-4.518.997-.579-1.736-4.333 2.089-13.602-12.202-18.138-13.803-4.537-1.6-8.383-5.066-10.446-9.412-4.811 6.975-9.044 5.081-10.767 13.377-1.723 8.296-.13 27.145 6.966 31.776a18.083 18.083 0 0 0-6.436 7.877c-.755 1.795-1.244 3.76-2.497 5.25-2.392 2.848-6.81 3.021-10.332 1.824-4.366-1.485-8.099-4.745-10.158-8.872-2.058-4.127-2.417-9.071-.976-13.452Z"/>
    <path fill="#3F3D56" d="M.591 574.004c0 .605.486 1.091 1.091 1.091h478.805c.605 0 1.091-.486 1.091-1.091s-.486-1.091-1.091-1.091H1.682c-.605 0-1.09.486-1.09 1.091Z"/>
    <path fill="#fff" d="M312.318.917H123.773c-21.381 0-38.714 17.332-38.714 38.713v495.437c0 21.381 17.333 38.714 38.714 38.714h188.545c21.381 0 38.714-17.333 38.714-38.714V39.63c0-21.38-17.333-38.713-38.714-38.713Z"/>
    <path fill="#3F3D56" d="M312.318 574.697H123.773c-21.853 0-39.63-17.778-39.63-39.63V39.631C84.142 17.778 101.92 0 123.772 0h188.545c21.852 0 39.63 17.778 39.63 39.63v495.437c0 21.852-17.778 39.63-39.63 39.63ZM123.773 1.833c-20.842 0-37.797 16.956-37.797 37.798v495.436c0 20.842 16.955 37.797 37.797 37.797h188.545c20.841 0 37.797-16.955 37.797-37.797V39.631c0-20.842-16.956-37.798-37.797-37.798H123.773Zm-54.295 84.86a3.004 3.004 0 0 0-3 3.001v24.011a3.004 3.004 0 0 0 3 3.001 3.004 3.004 0 0 0 3.002-3.001v-24.01a3.004 3.004 0 0 0-3.002-3.002Z"/>
    <path fill="#E6E6E6" d="M325.975 80.18H250.19a5.836 5.836 0 0 1-5.829-5.83 5.836 5.836 0 0 1 5.829-5.83h75.785a5.836 5.836 0 0 1 5.83 5.83 5.836 5.836 0 0 1-5.83 5.83Z"/>
    <path fill="#44B1D8" d="M254.879 126.023h-73.667a3.372 3.372 0 0 1-3.368-3.368 3.371 3.371 0 0 1 3.368-3.368h73.667a3.371 3.371 0 0 1 3.368 3.368 3.372 3.372 0 0 1-3.368 3.368ZM72.392 142.646c32.859 0 59.496-26.076 59.496-58.242s-26.637-58.242-59.496-58.242c-32.858 0-59.495 26.076-59.495 58.242s26.637 58.242 59.495 58.242Z"/>
    <path fill="#fff" d="M92.586 55.027 68.823 98.295c-5.048-8.92-10.068-17.855-15.129-26.767-1.748-3.078-6.502-.31-4.75 2.776 5.867 10.332 11.672 20.698 17.539 31.029 1.003 1.767 3.757 1.808 4.75 0l26.102-47.53c1.705-3.105-3.043-5.883-4.75-2.776Z"/>
    <path fill="#E6E6E6" d="M150.759 13.437h-42.058a.285.285 0 0 0-.285.285v4.896c0 .157.128.284.285.284h42.058a.284.284 0 0 0 .284-.284v-4.896a.284.284 0 0 0-.284-.285Zm141.664 5.465a4.372 4.372 0 1 0 0-8.743 4.372 4.372 0 0 0 0 8.743Zm12.023 0a4.372 4.372 0 1 0 0-8.744 4.372 4.372 0 0 0 0 8.744Zm12.023 0a4.372 4.372 0 1 0 0-8.744 4.372 4.372 0 0 0 0 8.744Z"/>
    <path fill="#3F3D56" d="M123.314 144.053c0 .605.486 1.091 1.091 1.091h187.281c.605 0 1.091-.486 1.091-1.091s-.486-1.091-1.091-1.091H124.405c-.605 0-1.091.486-1.091 1.091Z"/>
    <path fill="#44B1D8" d="M293.726 229.796h-112.39a3.372 3.372 0 0 1-3.368-3.368 3.372 3.372 0 0 1 3.368-3.368h112.39a3.371 3.371 0 0 1 3.368 3.368 3.371 3.371 0 0 1-3.368 3.368Zm0 48.587h-112.39a3.372 3.372 0 0 1-3.368-3.368 3.372 3.372 0 0 1 3.368-3.368h112.39a3.371 3.371 0 0 1 3.368 3.368 3.371 3.371 0 0 1-3.368 3.368Zm0 48.588h-112.39a3.373 3.373 0 0 1-3.368-3.369 3.371 3.371 0 0 1 3.368-3.367h112.39a3.37 3.37 0 0 1 3.368 3.367 3.372 3.372 0 0 1-3.368 3.369Zm-146.479-92.709a8.25 8.25 0 1 0 0-16.501 8.25 8.25 0 0 0 0 16.501Z"/>
    <path fill="#3F3D56" d="M146.331 239.763v-1.834c6.824 0 12.376-5.552 12.376-12.376s-5.552-12.376-12.376-12.376v-1.833c7.835 0 14.209 6.374 14.209 14.209 0 7.836-6.374 14.21-14.209 14.21Z"/>
    <path fill="#44B1D8" d="M147.247 282.85a8.25 8.25 0 1 0 0-16.502 8.25 8.25 0 0 0 0 16.502Z"/>
    <path fill="#3F3D56" d="M146.331 288.35v-1.833c6.824 0 12.376-5.552 12.376-12.376s-5.552-12.376-12.376-12.376v-1.834c7.835 0 14.209 6.374 14.209 14.21 0 7.835-6.374 14.209-14.209 14.209Z"/>
    <path fill="#44B1D8" d="M147.247 331.437a8.25 8.25 0 1 0 0-16.502 8.25 8.25 0 0 0 0 16.502Z"/>
    <path fill="#3F3D56" d="M146.331 336.937v-1.833c6.824 0 12.376-5.552 12.376-12.376 0-6.825-5.552-12.376-12.376-12.376v-1.834c7.835 0 14.209 6.375 14.209 14.21 0 7.835-6.374 14.209-14.209 14.209Z"/>
    <path fill="#A0616A" d="M352.631 186.786c5.09-1.291 10.86 4.145 12.89 12.146a20.65 20.65 0 0 1 .233 9.75l2.187 9.094.161-.008 17.251 40.656c4.011 9.453 3.588 20.305-1.529 29.209-3.043 5.297-7.038 8.858-11.729 5.223-7.784-6.032-12.868-40.565-15.19-60.403l-5.367-20.164a20.644 20.644 0 0 1-4.447-8.684c-2.031-7.997.45-15.527 5.54-16.819Z"/>
    <path fill="#44B1D8" d="m372.228 209.065-19.301 13.72 9.65 60.774 12.104 15.654 14.098-4.876 4.123-28.73-4.851-27.783-15.823-28.759Z"/>
  </g>
  <defs>
    <clipPath id="a">
      <path fill="#fff" d="M0 0h553.743v517.91H0z" transform="translate(318.7 87.09)"/>
    </clipPath>
    <clipPath id="b">
      <path fill="#fff" d="M0 0h480.986v575.331H0z" transform="translate(.591)"/>
    </clipPath>
  </defs>
</svg>
