<svg xmlns="http://www.w3.org/2000/svg" width="1047" height="672" fill="none" viewBox="0 0 1047 672">
  <g clip-path="url(#a)">
    <path fill="#E6E6E6" d="M231.601 16.384a14.55 14.55 0 0 1-14.814 14.29H148.06a14.46 14.46 0 0 1-2.662-.293V6.052a4.777 4.777 0 0 1 3.103-4.476h68.81a14.568 14.568 0 0 1 14.29 14.808Z"/>
    <path fill="#E6E6E6" d="M594.448 0H151.216a7.655 7.655 0 0 0-2.792.518 7.918 7.918 0 0 0-5.142 7.415v483.43a7.937 7.937 0 0 0 7.934 7.934h443.232a7.937 7.937 0 0 0 7.934-7.934V7.933A7.937 7.937 0 0 0 594.448 0Zm4.76 491.363a4.768 4.768 0 0 1-4.76 4.76H151.216a4.77 4.77 0 0 1-4.76-4.76V7.933a4.769 4.769 0 0 1 4.76-4.76h443.232a4.769 4.769 0 0 1 4.76 4.76v483.43Z"/>
    <path fill="#44B1D8" d="M359.205 166.102c5.75 0 10.412-4.661 10.412-10.412 0-5.75-4.662-10.412-10.412-10.412-5.751 0-10.413 4.662-10.413 10.412 0 5.751 4.662 10.412 10.413 10.412Zm43.385 0c5.75 0 10.412-4.661 10.412-10.412 0-5.75-4.662-10.412-10.412-10.412-5.751 0-10.413 4.662-10.413 10.412 0 5.751 4.662 10.412 10.413 10.412Zm-130.155 86.044c5.751 0 10.412-4.662 10.412-10.413 0-5.75-4.661-10.412-10.412-10.412-5.75 0-10.412 4.662-10.412 10.412 0 5.751 4.662 10.413 10.412 10.413Zm43.385 0c5.75 0 10.412-4.662 10.412-10.413 0-5.75-4.662-10.412-10.412-10.412-5.751 0-10.413 4.662-10.413 10.412 0 5.751 4.662 10.413 10.413 10.413Zm43.385 43.021c5.75 0 10.412-4.662 10.412-10.412 0-5.751-4.662-10.412-10.412-10.412-5.751 0-10.413 4.661-10.413 10.412 0 5.75 4.662 10.412 10.413 10.412Zm43.385 0c5.75 0 10.412-4.662 10.412-10.412 0-5.751-4.662-10.412-10.412-10.412-5.751 0-10.413 4.661-10.413 10.412 0 5.75 4.662 10.412 10.413 10.412Zm43.383 0c5.75 0 10.412-4.662 10.412-10.412 0-5.751-4.662-10.412-10.412-10.412-5.751 0-10.412 4.661-10.412 10.412 0 5.75 4.661 10.412 10.412 10.412Z"/>
    <path fill="#fff" d="M185.068 7.693a1.238 1.238 0 0 0 0 1.75l5.313 5.314h-13.102a1.24 1.24 0 0 0-1.234 1.237 1.239 1.239 0 0 0 1.234 1.238h13.102l-5.313 5.314a1.238 1.238 0 0 0 1.75 1.75l7.427-7.426a1.238 1.238 0 0 0 0-1.75l-7.427-7.427a1.238 1.238 0 0 0-1.75 0Z"/>
    <path fill="#E6E6E6" d="M498.868 177.904H219.289c-1.082 0-1.959-.473-1.959-1.058 0-.584.877-1.057 1.959-1.057h279.579c1.082 0 1.959.473 1.959 1.057 0 .585-.877 1.058-1.959 1.058Zm0-46.733H219.289c-1.082 0-1.959-.473-1.959-1.058 0-.584.877-1.057 1.959-1.057h279.579c1.082 0 1.959.473 1.959 1.057 0 .585-.877 1.058-1.959 1.058Zm.902 90.382H218.639a1.06 1.06 0 0 1-1.058-1.058 1.058 1.058 0 0 1 1.058-1.057H499.77a1.056 1.056 0 0 1 1.058 1.057 1.059 1.059 0 0 1-1.058 1.058Zm0 42.314H218.639a1.062 1.062 0 0 1-1.058-1.058 1.058 1.058 0 0 1 1.058-1.058H499.77a1.056 1.056 0 0 1 1.058 1.058 1.062 1.062 0 0 1-1.058 1.058Zm0 43.371H218.639a1.062 1.062 0 0 1-1.058-1.058 1.058 1.058 0 0 1 1.058-1.058H499.77a1.06 1.06 0 0 1 1.058 1.058 1.058 1.058 0 0 1-1.058 1.058Z"/>
    <path fill="#E6E6E6" d="M466.979 305.058V130.769c0-.362.474-.656 1.058-.656.584 0 1.058.294 1.058.656v174.289c0 .362-.474.656-1.058.656-.584 0-1.058-.294-1.058-.656Zm-43.371 0V130.769c0-.362.474-.656 1.058-.656.584 0 1.058.294 1.058.656v174.289c0 .362-.474.656-1.058.656-.584 0-1.058-.294-1.058-.656Zm-43.372 0V130.769c0-.362.473-.656 1.057-.656.585 0 1.058.294 1.058.656v174.289c0 .362-.473.656-1.058.656-.584 0-1.057-.294-1.057-.656Zm-42.312 0V130.769c0-.362.473-.656 1.057-.656.585 0 1.058.294 1.058.656v174.289c0 .362-.473.656-1.058.656-.584 0-1.057-.294-1.057-.656Zm-44.431 44.263V130.935a1.095 1.095 0 0 1 1.058-.822 1.092 1.092 0 0 1 1.058.822v218.386a1.09 1.09 0 0 1-1.058.821 1.093 1.093 0 0 1-1.058-.821Zm-44.427 0V130.935a1.09 1.09 0 0 1 1.727-.592c.192.149.328.357.388.592v218.386a1.09 1.09 0 0 1-1.727.592 1.09 1.09 0 0 1-.388-.592Z"/>
    <path fill="#E6E6E6" d="M218.639 350.609a1.06 1.06 0 0 1-.752-1.804c.198-.199.467-.311.748-.311l107.647-.467a1.084 1.084 0 0 1 1.063 1.053 1.049 1.049 0 0 1-.307.75 1.046 1.046 0 0 1-.746.312l-107.648.467h-.005Zm78.703-265.794a1.055 1.055 0 0 1-1.059-1.057 1.056 1.056 0 0 1 1.057-1.058l150.98-.19h.002a1.06 1.06 0 0 1 .749 1.806c-.198.199-.467.31-.748.31l-150.98.19h-.001Zm51.122 344.88a21.192 21.192 0 0 1-20.787-25.329 21.193 21.193 0 1 1 20.787 25.329Z"/>
    <path fill="#fff" d="M356.827 406.41h-6.272v-6.272a2.089 2.089 0 0 0-3.569-1.478 2.089 2.089 0 0 0-.612 1.478v6.272h-6.272a2.091 2.091 0 1 0 0 4.181h6.272v6.272a2.1 2.1 0 0 0 .61 1.482 2.103 2.103 0 0 0 1.48.614 2.093 2.093 0 0 0 2.091-2.096v-6.272h6.272a2.09 2.09 0 1 0 0-4.181Z"/>
    <path fill="#E6E6E6" d="M397.124 429.695a21.195 21.195 0 1 1 0-42.39 21.195 21.195 0 0 1 0 42.39Z"/>
    <path fill="#fff" d="m407.852 417.52-5.521-6.464a8.965 8.965 0 0 0-13.61-11.566 8.97 8.97 0 0 0-.638 12.085 8.963 8.963 0 0 0 11.98 1.712l5.376 6.293a1.585 1.585 0 0 0 2.232.171 1.583 1.583 0 0 0 .181-2.231Zm-18.661-11.664a5.816 5.816 0 0 1 9.932-4.114 5.811 5.811 0 0 1 1.592 2.979 5.81 5.81 0 0 1-2.474 5.973 5.816 5.816 0 0 1-7.344-.726 5.824 5.824 0 0 1-1.706-4.112Z"/>
    <path fill="#E6E6E6" d="M297.342 431.785a1.058 1.058 0 0 1-.002-2.116l150.98-.189h.002a1.06 1.06 0 0 1 1.058 1.057 1.059 1.059 0 0 1-1.057 1.059l-150.98.189h-.001Z"/>
    <path fill="#44B1D8" d="M221.686 240.151c5.751 0 10.413-4.662 10.413-10.413 0-5.75-4.662-10.412-10.413-10.412-5.75 0-10.412 4.662-10.412 10.412 0 5.751 4.662 10.413 10.412 10.413Z"/>
    <path fill="#E6E6E6" d="M400.864 70.685h-56.065a4.76 4.76 0 1 1 0-9.52h56.065a4.762 4.762 0 0 1 3.366 8.126 4.762 4.762 0 0 1-3.366 1.394Zm176.588-40.423a11.657 11.657 0 0 1-10.768-7.195 11.654 11.654 0 1 1 10.768 7.195Z"/>
  </g>
  <g clip-path="url(#b)">
    <path fill="#fff" d="M995.23 208.51a217.403 217.403 0 0 1-34.231 32.682c-48.948 37.538-110.946 57.896-172.109 62.166a341.93 341.93 0 0 1-93.865-6.375c-31.381-6.574-61.312-18.154-90.3-31.679-28.193-13.158-55.552-27.995-83.557-41.52.298-.884.596-1.768.884-2.662 30.537 14.698 60.448 30.894 91.343 44.897 29.106 13.198 59.236 23.963 90.746 29.722a340.713 340.713 0 0 0 95.315 3.734c60.995-6.137 123.042-28.64 169.934-68.899a202.842 202.842 0 0 0 24.331-24.807c.506.914 1.012 1.828 1.509 2.741Z"/>
    <path fill="#CCC" d="M783.307 4.344a3.33 3.33 0 0 0-.213.007c-75.266 4.715-134.225 67.54-134.225 143.027 0 75.487 58.959 138.312 134.225 143.026a3.263 3.263 0 0 0 2.464-.885 3.24 3.24 0 0 0 1.031-2.381V7.618a3.282 3.282 0 0 0-3.282-3.274Zm115.078 238.547a4.22 4.22 0 0 1-2.976-1.232l-97.319-97.318a4.19 4.19 0 0 1-1.231-2.972V7.618a4.165 4.165 0 0 1 1.325-3.06 4.221 4.221 0 0 1 3.162-1.139c75.757 4.746 135.1 67.98 135.1 143.959a144.228 144.228 0 0 1-34.872 94.049 4.207 4.207 0 0 1-1.365 1.046 4.239 4.239 0 0 1-1.824.418Z"/>
    <path fill="#44B1D8" d="M801.078 291.345a4.238 4.238 0 0 1-3.876-2.537 4.172 4.172 0 0 1-.343-1.671V166.458a4.2 4.2 0 0 1 2.594-3.882 4.202 4.202 0 0 1 4.579.911l84.922 84.922a4.213 4.213 0 0 1-.158 6.101 144.558 144.558 0 0 1-87.457 36.827 4.521 4.521 0 0 1-.261.008Z"/>
    <path fill="#fff" d="M1025.82 294.023c-13.63 24.162-32.864 45.473-54.89 62.365-48.949 37.538-110.946 57.896-172.109 62.166a341.93 341.93 0 0 1-93.865-6.375c-31.382-6.574-61.313-18.153-90.3-31.679-29.514-13.774-58.125-29.395-87.51-43.427-29.355-14.022-59.525-25.979-91.134-33.804 2.314-.407 4.558-.854 6.743-1.361a330.43 330.43 0 0 1 6.177 1.669c61.809 17.279 116.358 51.331 174.393 77.638 29.107 13.198 59.237 23.963 90.747 29.722a340.712 340.712 0 0 0 95.315 3.734c60.994-6.137 123.041-28.64 169.934-68.899a197.994 197.994 0 0 0 45.619-56.515c.32 1.589.61 3.177.88 4.766Zm-613.632 212.14c60.895 17.021 114.74 50.329 171.822 76.457-.587.824-1.172 1.648-1.768 2.472-1.45-.665-2.89-1.33-4.33-2.006-29.514-13.774-58.124-29.395-87.51-43.427-29.98-14.32-60.805-26.485-93.149-34.3a416.223 416.223 0 0 0-136.676-9.722c-.11-.994-.209-1.997-.299-2.99a419.379 419.379 0 0 1 151.91 13.516Z"/>
    <path fill="#CCC" d="M656.941 601.981H223.87a1.136 1.136 0 0 1 0-2.273h433.071a1.137 1.137 0 1 1 0 2.273Z"/>
    <path fill="#A0616A" d="M399.053 448.639c15.419 0 27.918-12.499 27.918-27.917 0-15.419-12.499-27.918-27.918-27.918-15.419 0-27.918 12.499-27.918 27.918 0 15.418 12.499 27.917 27.918 27.917Zm104.459 169.075.652 13.92-53.382 9.139-.961-20.544 53.691-2.515Z"/>
    <path fill="#2F2E41" d="m516.84 613.531 1.481 31.646-.567.027a21.589 21.589 0 0 1-12.523-3.029c-3.408-2.172-5.37-5.18-5.525-8.47v-.001l-.904-19.328 18.038-.845Z"/>
    <path fill="#A0616A" d="m502.019 640.62 13.936-.001 6.629-53.751-20.567.001.002 53.751Z"/>
    <path fill="#2F2E41" d="m498.465 636.07 27.443-.001h.001a17.488 17.488 0 0 1 17.49 17.489v.568l-44.933.002-.001-18.058Z"/>
    <path fill="#A0616A" d="M370.458 627.599a12.212 12.212 0 0 0 2.843-18.507l11.123-110.659-26.491 1.851-2.603 108.193a12.273 12.273 0 0 0-.929 16.28 12.278 12.278 0 0 0 16.057 2.842Z"/>
    <path fill="#44B1D8" d="m384.294 517.614-27.449-3.345a5.481 5.481 0 0 1-3.886-2.386 5.471 5.471 0 0 1-.731-4.5l7.309-26.582a15.208 15.208 0 0 1 30.177 3.767l.716 27.47a5.482 5.482 0 0 1-1.791 4.193 5.473 5.473 0 0 1-4.345 1.383Z"/>
    <path fill="#2F2E41" d="M380.454 643.274a18.94 18.94 0 0 1-14.361-29.556l17.93-18.614 65.358-58.538 34.942-28.995a15.64 15.64 0 0 1 14.882-2.822 15.64 15.64 0 0 1 10.298 11.108l18.255 73.848a5.102 5.102 0 0 1-3.233 6.041l-19.901 7.164a5.106 5.106 0 0 1-4.105-.281 5.107 5.107 0 0 1-2.57-3.214l-7.57-28.389-42.123 40.269 13.142 4.837a5.133 5.133 0 0 1 3.156 6.189l-4.247 15.046a5.09 5.09 0 0 1-4.774 3.723l-75.079 2.184Z"/>
    <path fill="#44B1D8" d="m378.669 601.301-1.729-63.146-10.905-27.696a41.669 41.669 0 0 1 2.11-35.097 41.677 41.677 0 0 1 28.205-20.993c.898-.186 1.793-.368 2.686-.545a41.68 41.68 0 0 1 32.946 7.41 41.674 41.674 0 0 1 16.639 29.386l5.124 47.539-.02.091c-8.172 36.347-31.819 56.351-74.418 62.953l-.638.098Z"/>
    <path fill="#A0616A" d="M404.461 557.438a12.04 12.04 0 0 1 1.878-.139l31.553-46.713-5.975-12.322 17.417-11.449 12.699 20.786a9.092 9.092 0 0 1-1.037 10.864l-43.185 47.414a11.926 11.926 0 0 1-4.278 12.871 11.926 11.926 0 0 1-18.155-4.858 11.925 11.925 0 0 1-.71-7.068 11.927 11.927 0 0 1 9.793-9.386Z"/>
    <path fill="#44B1D8" d="M435.131 509.717a5.118 5.118 0 0 1-3.252-2.75l-10.912-23.237a14.206 14.206 0 0 1 23.619-15.79l17.241 19.133a5.118 5.118 0 0 1 1.275 4.064 5.109 5.109 0 0 1-2.245 3.62l-21.518 14.295a5.112 5.112 0 0 1-4.208.665Z"/>
    <path fill="#CCC" d="M769.339 442.377h-92.15a5.008 5.008 0 1 1 0-10.016h92.15a5.009 5.009 0 0 1 0 10.016Z"/>
    <path fill="#3F3D56" d="M649.644 447.385a10.523 10.523 0 0 1-9.717-6.492 10.517 10.517 0 1 1 20.234-4.025 10.526 10.526 0 0 1-10.517 10.517Z"/>
    <path fill="#CCC" d="M769.339 472.426h-92.15a5.008 5.008 0 1 1 0-10.016h92.15a5.008 5.008 0 1 1 0 10.016Z"/>
    <path fill="#3F3D56" d="M649.644 477.434c-2.08 0-4.113-.617-5.843-1.772a10.525 10.525 0 0 1-4.472-10.797 10.518 10.518 0 0 1 20.832 2.052 10.528 10.528 0 0 1-10.517 10.517Z"/>
    <path fill="#CCC" d="M769.339 502.475h-92.15a5.008 5.008 0 1 1 0-10.017h92.15a5.009 5.009 0 0 1 0 10.017Z"/>
    <path fill="#3F3D56" d="M649.644 507.483a10.516 10.516 0 1 1 10.517-10.517 10.528 10.528 0 0 1-10.517 10.517Zm146.171-40.2h38.061a1.003 1.003 0 0 0 1.002-1.002V230.978a1.004 1.004 0 0 0-1.002-1.002 1.002 1.002 0 0 0-1.001 1.002v234.301h-37.06a1.016 1.016 0 0 0-.711.293 1.01 1.01 0 0 0-.294.709 1.011 1.011 0 0 0 .294.71 1.003 1.003 0 0 0 .711.292Z"/>
    <path fill="#CCC" d="M958.91 77.186a12.906 12.906 0 0 1-12.528-6.986 12.904 12.904 0 0 1 7.965-18.3 12.91 12.91 0 1 1 4.563 25.286Zm-.159-1.98a10.92 10.92 0 0 0 9.518-7.531 10.925 10.925 0 1 0-9.518 7.532Zm44.609-31.146c4.39 0 7.95-3.556 7.95-7.944 0-4.387-3.56-7.944-7.95-7.944a7.944 7.944 0 0 0-7.94 7.944c0 4.388 3.557 7.945 7.94 7.945Zm39.05-28.73c2.31 0 4.18-1.869 4.18-4.173a4.176 4.176 0 0 0-8.35 0 4.174 4.174 0 0 0 4.17 4.173ZM898.25 331.294a12.913 12.913 0 0 1-19.853 2.058 12.906 12.906 0 0 1-2.871-14.054 12.913 12.913 0 0 1 19.07-5.892 12.927 12.927 0 0 1 3.654 17.888Zm-19.885-13.14a10.927 10.927 0 0 0 .062 12.138 10.925 10.925 0 0 0 19.776-4.039 10.923 10.923 0 0 0-4.702-11.19 10.934 10.934 0 0 0-15.136 3.091Zm35.352 60.619a7.945 7.945 0 1 0-.001-15.89 7.945 7.945 0 0 0 .001 15.89Zm22.159 36.932a4.173 4.173 0 1 0 .001-8.347 4.173 4.173 0 0 0-.001 8.347ZM577.69 114.47a12.912 12.912 0 0 1 15.673-17.983 12.907 12.907 0 0 1 7.088 18.658 12.91 12.91 0 0 1-5.455 5.141 12.925 12.925 0 0 1-17.306-5.816Zm21.343-10.607a10.919 10.919 0 0 0-10.53-6.037 10.926 10.926 0 0 0-9.795 13.758 10.928 10.928 0 0 0 9.15 7.975 10.923 10.923 0 0 0 6.254-1.052 10.94 10.94 0 0 0 5.489-6.304 10.94 10.94 0 0 0-.568-8.34Zm-63.3 12.09a7.944 7.944 0 0 0 7.944-7.945 7.945 7.945 0 1 0-7.944 7.945Zm-46.329-5.029a4.174 4.174 0 1 0 0-8.349 4.174 4.174 0 0 0 0 8.349Z"/>
    <path fill="#2F2E41" d="m428.556 423.164-1.164-2.966c-3.21-8.182-10.887-14.472-19.103-15.651a21.836 21.836 0 0 0-21.185 9.823 47.799 47.799 0 0 0-4.469 10.46c-.367 1.088-.736 1.875-1.445 2.113-.798.287-1.592-.205-2.909-1.021a1.816 1.816 0 0 0-1.95.021 1.818 1.818 0 0 0-.812 1.773l1.38 9.854-1.155-1.028c-7.516-6.69-9.061-19.279-3.631-27.266l-12.357 2.538.557-1.062a42.203 42.203 0 0 1 24.602-20.778l-11.836-2.606 1.196-.738c10.6-6.529 24.584-6.345 35.623.458a40.397 40.397 0 0 1 18.591 32.89l.067 3.186Z"/>
  </g>
  <defs>
    <clipPath id="a">
      <path fill="#fff" d="M0 0h655.121v585.201H0z"/>
    </clipPath>
    <clipPath id="b">
      <path fill="#fff" d="M0 0h726.04v668.557H0z" transform="translate(320.549 3.41)"/>
    </clipPath>
  </defs>
</svg>
